:SAMPLES-PER-SECOND 30
:FRAME-RANGE 1-1086
:FULLY-SPECIFIED
:DEGREES
917
root  -53.1969 38.4041 -93.3152 -3.4552 -59.8334 1.75031
RightUpLeg  -25.0394 7.3663 -7.51873
RightLeg  40.5119 -8.03558 -7.55757
RightFoot  -5.1852 -0.288115 4.69788
RightToes  1.21801e-010 1.2921e-014 -6.02303e-014
Spine  -6.3305 -5.48737 -5.27244
Spine1  8.40112 -6.31199 1.17888
HEad  12.9408 34.5604 -6.16218
LeftShoulder1  0.944452 -0.291806 -20.0382
LeftArm  5.24814 -2.3779 -51.6936
LeftForeArm  21.8656 -9.50667 -11.3183
LeftHand  -0.0909204 3.70383 5.16661
RightShoulder  0.153136 -2.86471 27.2118
RightArm  -29.795 -15.3346 43.8865
RightForeArm  63.7867 -5.26254 1.87603
RightHand  0.242611 -7.80302 -12.837
LeftUpLeg  1.63631 -0.189841 -11.2728
LeftLeg  17.2464 2.38825 2.45963
LeftFoot  -16.1531 0.531593 10.3051
LeftToes  3.79492e-011 -8.60219e-011 1.56273e-011
918
root  -54.3317 38.4252 -92.6599 -1.32864 -58.3623 -0.239258
RightUpLeg  -23.736 6.20454 -6.01639
RightLeg  26.4287 -8.8391 -4.96289
RightFoot  -4.10634 -0.383311 5.61499
RightToes  1.21801e-010 1.2921e-014 -6.02303e-014
Spine  -6.76153 -5.71129 -3.91763
Spine1  8.79603 -6.4792 1.61335
HEad  10.4176 36.6559 -7.25998
LeftShoulder1  0.962923 -0.410991 -19.6686
LeftArm  7.01762 -4.29703 -51.9834
LeftForeArm  19.99 -10.9238 -10.8337
LeftHand  -0.0986771 3.53556 5.23716
RightShoulder  0.183236 -2.77162 27.0618
RightArm  -29.2906 -16.28 43.356
RightForeArm  62.9639 -5.34001 2.16189
RightHand  0.201318 -7.50402 -12.3791
LeftUpLeg  4.10427 -0.454027 -10.1763
LeftLeg  16.044 1.2369 2.40032
LeftFoot  -17.1712 0.619998 10.1153
LeftToes  3.79492e-011 -8.60219e-011 1.56273e-011
919
root  -55.5406 38.3106 -91.9979 -0.259979 -56.9282 -0.909119
RightUpLeg  -22.0448 2.19821 -4.35222
RightLeg  13.1008 -3.81385 -1.32441
RightFoot  -3.92756 -0.592036 8.70772
RightToes  1.21801e-010 1.2921e-014 -6.02303e-014
Spine  -7.42626 -5.89931 -3.61056
Spine1  9.34621 -6.67503 2.11875
HEad  8.07964 38.4114 -8.19146
LeftShoulder1  0.97142 -0.487008 -19.3516
LeftArm  7.93324 -5.93372 -52.2735
LeftForeArm  18.9846 -11.5475 -10.5941
LeftHand  -0.103631 3.44395 5.3159
RightShoulder  0.181886 -2.77543 27.0421
RightArm  -29.0911 -17.081 42.738
RightForeArm  62.5044 -5.37181 2.25469
RightHand  0.176944 -7.33391 -12.0096
LeftUpLeg  6.15504 -0.669029 -9.49917
LeftLeg  15.7109 0.139391 2.13704
LeftFoot  -18.5889 0.744198 9.9548
LeftToes  3.79492e-011 -8.60219e-011 1.56273e-011
920
root  -56.7765 38.1772 -91.3204 0.247498 -55.7607 -1.06702
RightUpLeg  -20.5258 -2.15356 -2.97469
RightLeg  3.12268 3.68398 1.13942
RightFoot  -4.14121 -0.815056 12.4585
RightToes  1.21801e-010 1.2921e-014 -6.02303e-014
Spine  -7.86724 -5.83671 -3.37442
Spine1  9.62295 -6.62422 2.41795
HEad  6.29252 39.7322 -8.82287
LeftShoulder1  1.00377 -0.646817 -19.1186
LeftArm  8.14 -7.21694 -52.4824
LeftForeArm  19.2904 -11.2742 -10.7483
LeftHand  -0.102091 3.4194 5.15858
RightShoulder  0.195952 -2.73107 26.9366
RightArm  -28.9886 -17.923 42.0846
RightForeArm  62.1291 -5.39099 2.29061
RightHand  0.165881 -7.23465 -11.9467
LeftUpLeg  8.14562 -1.35539 -9.18192
LeftLeg  15.7975 -0.346705 2.00228
LeftFoot  -19.5644 0.772908 9.09194
LeftToes  3.79492e-011 -8.60219e-011 1.56273e-011
921
root  -58.0396 38.0349 -90.6244 0.47934 -54.9377 -0.927856
RightUpLeg  -19.9513 -1.30643 -2.39574
RightLeg  -0.783075 6.60059 0.700232
RightFoot  -5.91938 -0.700652 13.8787
RightToes  1.21801e-010 1.2921e-014 -6.02303e-014
Spine  -7.9908 -5.53463 -3.06108
Spine1  9.3652 -6.29243 2.41537
HEad  5.30881 40.661 -8.86628
LeftShoulder1  1.00447 -0.643432 -19.1613
LeftArm  8.15067 -8.0854 -52.4999
LeftForeArm  20.4551 -10.4323 -11.188
LeftHand  -0.101044 3.42681 5.11191
RightShoulder  0.239146 -2.60186 27.0535
RightArm  -28.6082 -18.447 41.0087
RightForeArm  62.0788 -5.41286 2.41017
RightHand  0.182323 -7.35344 -12.1957
LeftUpLeg  9.59619 -2.66476 -9.16515
LeftLeg  17.0683 0.103509 1.77648
LeftFoot  -20.0719 0.703693 7.62322
LeftToes  3.79492e-011 -8.60219e-011 1.56273e-011
922
root  -59.2177 38.0431 -89.8881 1.23706 -54.8133 -1.59308
RightUpLeg  -21.2383 -0.0728626 -1.15719
RightLeg  3.64967 8.47244 0.355062
RightFoot  -1.11925 -0.947627 10.4816
RightToes  1.21801e-010 1.2921e-014 -6.02303e-014
Spine  -7.73112 -4.92791 -1.26416
Spine1  9.32445 -5.6769 1.90698
HEad  4.67438 41.3032 -9.10702
LeftShoulder1  0.992776 -0.550182 -19.4962
LeftArm  6.86064 -8.0396 -52.4196
LeftForeArm  22.4023 -9.34174 -11.5321
LeftHand  -0.0923368 3.62129 5.03752
RightShoulder  0.318277 -2.35316 26.7358
RightArm  -28.8229 -18.1226 40.5234
RightForeArm  63.0278 -5.34783 2.22175
RightHand  0.214988 -7.53935 -12.8781
LeftUpLeg  11.0832 -4.74205 -9.13784
LeftLeg  18.1687 1.77813 1.61502
LeftFoot  -19.0899 0.472934 5.28457
LeftToes  3.79492e-011 -8.60219e-011 1.56273e-011
923
root  -60.4177 38.1267 -89.0743 3.39117 -54.3749 -4.26135
RightUpLeg  -21.6269 1.75152 0.589313
RightLeg  7.45906 6.94534 -0.137643
RightFoot  5.55281 -1.45398 10.0244
RightToes  1.21801e-010 1.2921e-014 -6.02303e-014
Spine  -7.68959 -4.48787 1.82038
Spine1  9.96814 -5.5028 1.89007
HEad  3.76103 41.8714 -10.7102
LeftShoulder1  1.0095 -0.493443 -20.3808
LeftArm  5.60482 -6.81963 -51.9934
LeftForeArm  23.4553 -8.64838 -11.6831
LeftHand  -0.087678 3.74268 5.03957
RightShoulder  0.41923 -2.0253 26.2322
RightArm  -28.8009 -16.7958 39.8869
RightForeArm  63.6016 -5.309 2.11222
RightHand  0.238744 -7.71302 -13.1075
LeftUpLeg  11.9028 -6.28829 -7.74907
LeftLeg  21.0663 2.47404 1.3878
LeftFoot  -17.2222 0.205242 1.98281
LeftToes  3.79492e-011 -8.60219e-011 1.56273e-011
